<svg width="245" height="41" viewBox="0 0 245 41" fill="none" xmlns="http://www.w3.org/2000/svg">
<path d="M24.4884 39.5001H13.4164L0.232422 1.10007H8.04042L14.1204 21.0681C15.4004 25.2281 16.6804 29.9641 17.6404 33.9961H20.4564C21.4804 29.9001 22.7604 25.2921 24.0404 21.0681L30.1204 1.10007H37.6084L24.4884 39.5001Z" fill="black"/>
<path d="M50.8269 39.5001H43.5949V1.10007H50.8269V39.5001Z" fill="black"/>
<path d="M76.9549 40.3321C65.1149 40.3321 59.2269 33.2921 59.2269 20.2361C59.2269 7.18007 65.6909 0.268066 77.2749 0.268066C86.8749 0.268066 92.1869 4.68407 93.5309 13.3881L86.6829 14.9241C85.4029 9.10007 82.7789 6.47607 77.0829 6.47607C69.2109 6.47607 66.4589 11.9161 66.4589 20.2361C66.4589 29.2601 69.2749 34.2521 76.8909 34.2521C83.2269 34.2521 85.5949 31.6281 87.0029 25.6761L93.9149 27.0841C92.5069 35.9801 87.1309 40.3321 76.9549 40.3321Z" fill="black"/>
<path d="M98.5689 7.56407V1.10007H129.481V7.56407H117.641V39.5001H110.409V7.56407H98.5689Z" fill="black"/>
<path d="M152.982 34.2521C159.702 34.2521 161.814 31.1161 161.814 24.9721V1.10007H169.046V25.0361C169.046 35.2121 163.35 40.2681 152.982 40.2681C142.486 40.2681 136.47 35.3401 136.47 25.0361V1.10007H143.702V24.7801C143.702 30.6041 145.686 34.2521 152.982 34.2521Z" fill="black"/>
<path d="M186.952 1.10007V33.3561H204.296V39.5001H179.72V1.10007H186.952Z" fill="black"/>
<path d="M236.934 39.5001L233.862 29.4521H217.606L214.534 39.5001H206.982L220.166 1.10007H231.558L244.742 39.5001H236.934ZM220.678 19.5321L219.142 24.5241H232.326L230.79 19.5321C229.446 15.3721 228.23 10.6361 227.27 6.60407H224.326C223.238 10.7001 221.958 15.3081 220.678 19.5321Z" fill="black"/>
</svg>
